# xmcd
#
# Track frame offsets:
#	150
#	9952
#	25313
#	38966
#	51232
#	67121
#	78262
#	88104
#	101659
#	109835
#	122659
#	131823
#
# Disc length: 1907 seconds
# Revision: 0
# Processed by: cddbd v1.5.2PL0 Copyright (c) Steve Scherf et al.
# Submitted via: dBpowerAMP V12.0
#
DISCID=9f07710c
DTITLE=Jeff Parker - Go Parker!
DYEAR=2012
DGENRE=Country
TTITLE0=Lord I Hate To See My Darlin' Go
TTITLE1=Cold Rails
TTITLE2=Sweet Mary
TTITLE3=It's Gonna take a Miracle
TTITLE4=Plant Some Flowers by My Graveside
TTITLE5=In My Arms Instead of In My Memory
TTITLE6=Carolina Mornin's
TTITLE7=When I Loved You
TTITLE8=Good Riddance (Time Of Your Life)
TTITLE9=Let's Be Sweethearts Again
TTITLE10=How Come You Do Me Like You Do
TTITLE11=Hello Darlin'
EXTD=
EXTT0=
EXTT1=
EXTT2=
EXTT3=
EXTT4=
EXTT5=
EXTT6=
EXTT7=
EXTT8=
EXTT9=
EXTT10=
EXTT11=
PLAYORDER=
